<?xml version="1.0" encoding="UTF-8" standalone="no"?>
<!DOCTYPE svg PUBLIC "-//W3C//DTD SVG 1.1//EN" "http://www.w3.org/Graphics/SVG/1.1/DTD/svg11.dtd">
<svg width="101" height="101" viewBox="0 0 101 101" fill="none" xmlns="http://www.w3.org/2000/svg">
    <g opacity="0.1">
        <path opacity="0.1" d="M100 97.6637V100H97.6638" stroke="#20263C" stroke-miterlimit="10"/>
        <path opacity="0.1" d="M93.1698 100H5.5791" stroke="#20263C" stroke-miterlimit="10" stroke-dasharray="5.77 5.77"/>
        <path opacity="0.1" d="M3.33635 100H1V97.6637" stroke="#20263C" stroke-miterlimit="10"/>
        <path opacity="0.1" d="M1 93.17V5.57922" stroke="#20263C" stroke-miterlimit="10" stroke-dasharray="5.77 5.77"/>
        <path opacity="0.1" d="M1 3.33638V1H3.33635" stroke="#20263C" stroke-miterlimit="10"/>
        <path opacity="0.1" d="M7.82202 1H95.4205" stroke="#20263C" stroke-miterlimit="10" stroke-dasharray="5.77 5.77"/>
        <path opacity="0.1" d="M97.6638 1H100V3.33638" stroke="#20263C" stroke-miterlimit="10"/>
        <path opacity="0.1" d="M100 7.82227V95.4207" stroke="#20263C" stroke-miterlimit="10" stroke-dasharray="5.77 5.77"/>
    </g>
    <path d="M50 63.3379C48.0535 63.3466 46.1327 62.875 44.3952 61.962C42.6578 61.0489 41.153 59.7204 40.0046 58.0854L32 62.8682C32.3046 63.2335 32.6652 63.5437 33.0673 63.7863L47.3113 72.327C48.1438 72.7694 49.0652 73 50 73C50.9348 73 51.8562 72.7694 52.6887 72.327L66.9327 63.7863C67.3348 63.5437 67.6954 63.2335 68 62.8682L60.016 58C58.8743 59.6537 57.3703 61.0005 55.6284 61.9288C53.8866 62.8571 51.9571 63.3402 50 63.3379Z" fill="white"/>
    <path d="M37.4673 50.449C37.4746 47.4125 38.6548 44.485 40.7823 42.2261C42.9098 39.9672 45.8355 38.5353 49 38.2041V29C48.5199 29.0952 48.058 29.2604 47.6306 29.4898L32.7815 37.6531C31.9744 38.1681 31.3033 38.8543 30.8208 39.6581C30.3382 40.4618 30.0573 41.3611 30 42.2857V58.6122C30.0066 59.0833 30.0858 59.551 30.2353 60L38.58 55.4082C37.8503 53.8473 37.4713 52.158 37.4673 50.449Z" fill="white"/>
    <path d="M67.3649 37.6474L53.2973 29.4895C52.8925 29.2602 52.4549 29.0951 52 29V38.1776C53.9111 38.3955 55.7447 39.0617 57.3531 40.1229C58.9615 41.184 60.2998 42.6103 61.2602 44.2869C62.2206 45.9635 62.7762 47.8436 62.8824 49.7758C62.9886 51.708 62.6424 53.6382 61.8716 55.4112L69.7771 60C69.9187 59.5512 69.9938 59.0839 70 58.6132V42.2974C69.9488 41.3699 69.6841 40.4671 69.2268 39.6601C68.7694 38.8531 68.1321 38.1641 67.3649 37.6474Z" fill="white"/>
    <path d="M77.6116 29.4711L54.3885 16.0403C53.0266 15.3562 51.5238 15 50 15C48.4762 15 46.9736 15.3562 45.6116 16.0403L22.3884 29.4711C21.1137 30.3027 20.0524 31.4228 19.29 32.7409C18.5277 34.059 18.0858 35.5381 18 37.0587V63.9202C18.0842 65.4441 18.5253 66.9268 19.2876 68.2485C20.0499 69.5703 21.1121 70.694 22.3884 71.5289L45.6116 84.96C46.9736 85.644 48.4762 86 50 86C51.5238 86 53.0266 85.644 54.3885 84.96L77.6116 71.5289C78.8879 70.694 79.9501 69.5703 80.7124 68.2485C81.4747 66.9268 81.9158 65.4441 82 63.9202V37.0587C81.9142 35.5381 81.4723 34.059 80.71 32.7409C79.9476 31.4228 78.8863 30.3027 77.6116 29.4711ZM74.6299 60.8305C74.5617 62.0012 74.2204 63.1395 73.6333 64.1542C73.0463 65.169 72.2298 66.0318 71.2493 66.6737L53.3595 77.0147C52.3145 77.543 51.1602 77.8183 49.9895 77.8183C48.8188 77.8183 47.6644 77.543 46.6195 77.0147L28.7507 66.6737C27.7702 66.0318 26.9537 65.169 26.3667 64.1542C25.7796 63.1395 25.4383 62.0012 25.3701 60.8305V40.1695C25.4383 38.9988 25.7796 37.8605 26.3667 36.8458C26.9537 35.831 27.7702 34.9681 28.7507 34.3263L46.5984 23.9853C47.6434 23.457 48.7977 23.1817 49.9685 23.1817C51.1392 23.1817 52.2936 23.457 53.3386 23.9853L71.2283 34.3263C72.2126 34.9658 73.0333 35.8277 73.6241 36.8426C74.2149 37.8574 74.5594 38.997 74.6299 40.1695V60.8305Z" fill="white"/>
    <path d="M41 50.5C41 52.1811 41.5278 53.8245 42.5167 55.2223C43.5056 56.6202 44.9113 57.7096 46.5559 58.353C48.2004 58.9963 50.01 59.1646 51.7559 58.8367C53.5017 58.5087 55.1053 57.6992 56.3639 56.5104C57.6226 55.3217 58.4798 53.8071 58.8271 52.1583C59.1743 50.5094 58.9961 48.8004 58.3149 47.2472C57.6337 45.694 56.4803 44.3665 55.0002 43.4325C53.5202 42.4985 51.78 42 50 42C47.6131 42 45.3239 42.8955 43.6361 44.4896C41.9482 46.0837 41 48.2457 41 50.5Z" fill="white"/>
</svg>
